<?xml version="1.0" encoding="UTF-8" standalone="no"?>
<svg width="97px" height="32px" viewBox="0 0 97 32" version="1.1" xmlns="http://www.w3.org/2000/svg" xmlns:xlink="http://www.w3.org/1999/xlink">
    <!-- Generator: Sketch 40.1 (33804) - http://www.bohemiancoding.com/sketch -->
    <title>Magazine Logo</title>
    <desc>Created with Sketch.</desc>
    <defs>
        <polygon id="path-1" points="0 0.179492896 0 18.0079686 24.0611463 18.0079686 24.0611463 0.179492896 1.6907976e-20 0.179492896"></polygon>
        <polygon id="path-3" points="9.8082283 13.5432157 9.8082283 0.0262626498 0.097845774 0.0262626498 0.097845774 13.5432157 9.8082283 13.5432157"></polygon>
        <polygon id="path-5" points="0.269332013 27.6078431 14.085518 27.6078431 14.085518 0.114901219 0.269332013 0.114901219"></polygon>
    </defs>
    <g id="Symbols" stroke="none" stroke-width="1" fill="none" fill-rule="evenodd">
        <g id="Header-NEW" transform="translate(-1165.000000, -169.000000)">
            <g id="Menu" transform="translate(346.000000, 150.000000)">
                <g id="Magazine-Logo" transform="translate(819.000000, 19.000000)">
                    <g id="Group-3" transform="translate(0.000000, 0.134275)">
                        <mask id="mask-2" fill="white">
                            <use xlink:href="#path-1"></use>
                        </mask>
                        <g id="Clip-2"></g>
                        <path d="M10.9751913,18.0079686 C10.8984646,18.0079686 10.8282878,18.0004392 10.7671559,17.9900863 C9.49555145,17.7695373 9.35083119,16.2523608 8.87206913,11.2245961 C8.6381463,8.76938039 8.17279582,3.88718431 7.48880547,2.50553725 C7.34377331,2.68749804 7.13386656,3.00028235 6.86220418,3.53016471 C5.78054502,5.64122353 4.73600161,9.32875294 3.89699839,12.2918902 C3.52740032,13.5966745 3.20832958,14.7235765 2.93261254,15.5536941 C2.61260611,16.5171451 2.21712058,17.7165176 1.11924277,17.5242039 C-0.0129437299,17.3249882 -0.0378954984,16.1014588 0.0151270096,13.5747137 C0.0578569132,11.529851 0.233454984,8.27055686 0.552213826,3.61047843 L2.65252894,3.75573333 C2.47256431,6.38694902 2.33657717,8.60310588 2.24519132,10.3991843 C3.03865756,7.62930196 3.97715595,4.53816471 4.99082154,2.55981176 C5.36135531,1.83698824 6.3422717,-0.0848941176 7.8627701,0.210007843 C9.77657074,0.580831373 10.2784132,3.78930196 10.9677058,11.0225569 C11.0634582,12.0289882 11.1707508,13.1530667 11.2849051,14.1077333 C12.7695354,10.8245961 14.5033714,6.84655686 14.5245804,6.79824314 C15.3960209,4.79259608 16.2269148,3.49879216 17.4470563,3.70773333 C18.9731688,3.96812549 19.2027251,6.12436078 19.5398859,10.5861647 C19.6400048,11.9144784 19.7775514,13.7328314 19.9843392,14.8431059 C20.3976029,14.0719686 21.067246,12.5547922 22.0665643,9.57847843 L24.0611463,10.2561255 C21.8968923,16.7019294 20.8604582,17.8012235 19.5950916,17.6415373 C18.0156447,17.4420078 17.7817219,15.2625569 17.4405064,10.7467922 C17.3406994,9.42412549 17.2040884,7.61487059 16.9985482,6.50522353 C16.8497733,6.78130196 16.6685611,7.15181176 16.4530402,7.64749804 C16.4271527,7.70710588 13.873963,13.5640471 12.2991945,16.9569882 C11.8955997,17.8266353 11.355082,18.0079686 10.9751913,18.0079686" id="Fill-1" fill="#FFFFFF" mask="url(#mask-2)"></path>
                    </g>
                    <path d="M27.1198277,6.43711373 C26.3940431,6.43711373 25.3853678,7.39523137 24.678609,8.7728 C23.0695318,11.9091137 24.0953614,14.9045647 25.0731588,15.5646431 C25.8410495,16.0829176 26.3082714,15.9803294 26.5936572,15.8579765 C27.476326,15.4796235 28.3808277,14.0750745 29.1402971,11.9034667 C29.307474,11.4240941 29.4518823,10.9528784 29.5738341,10.5177412 C28.6328405,6.88511373 27.5296605,6.47915294 27.2099659,6.44213333 C27.1803357,6.43868235 27.1503936,6.43711373 27.1198277,6.43711373 M26.1273711,18.0741333 C25.4864225,18.0741333 24.7316315,17.8843294 23.9004257,17.3233882 C22.0858084,16.0986039 20.6523293,12.0032314 22.8078502,7.80150588 C23.7444772,5.97562353 25.4571042,4.10676078 27.4513743,4.33860392 C29.010236,4.51962353 30.2509627,5.90472157 31.1514096,8.46252549 L32.1685061,8.55162353 C32.1685061,14.2175059 33.0471203,15.1119373 33.1637698,15.2051137 C33.332818,15.1875451 33.6640527,14.9472314 34.1493646,14.4904471 C34.3087441,14.3401725 34.4344386,14.2215843 34.5738566,14.129349 L35.7316186,15.8981333 C35.7403518,15.8921725 35.7509563,15.8852706 35.7618727,15.8764863 C35.7169595,15.9125647 35.6589466,15.9696627 35.5884579,16.0358588 C35.0370238,16.5550745 33.745146,17.7707608 32.3363068,17.1558588 C31.462683,16.7749961 30.8638405,15.8300549 30.5011042,14.1745255 C29.6312232,16.081349 28.5982199,17.3001725 27.4201846,17.8055843 C27.0739788,17.9542902 26.6363871,18.0741333 26.1273711,18.0741333" id="Fill-4" fill="#FFFFFF"></path>
                    <path d="M50.9701939,6.43604706 C50.2437855,6.43604706 49.2341746,7.39447843 48.5271039,8.77267451 C46.9180267,11.909302 47.9438563,14.9047529 48.9216537,15.5648314 C49.6895444,16.0827922 50.1567662,15.9802039 50.4421521,15.8581647 C51.3248209,15.479498 52.2293225,14.074949 52.988792,11.9036549 C53.1569045,11.4224 53.3016248,10.949302 53.4235765,10.5132235 C52.4828949,6.88373333 51.3797148,6.4784 51.0603322,6.44106667 C51.03039,6.43761569 51.0004479,6.43604706 50.9701939,6.43604706 M49.9758659,18.0740078 C49.3349174,18.0740078 48.5801264,17.8842039 47.7489206,17.3232627 C45.9343032,16.0984784 44.501136,12.0031059 46.656345,7.80169412 C47.5932839,5.97487059 49.3074704,4.10475294 51.3014286,4.33753725 C52.8609141,4.51855686 54.1022646,5.90396863 55.0027116,8.46271373 L56.017001,8.55149804 C56.017001,13.4572235 57.1123836,14.3610667 57.4486087,14.5213804 C58.032792,14.8005961 59.0293032,14.3685961 60.4078884,13.2357333 C60.5541682,13.1152627 60.6511682,13.0358902 60.7459849,12.9728314 L61.9037469,14.7416157 L61.9165347,14.7328314 C61.8763,14.7623216 61.8161039,14.8125176 61.7396891,14.8755765 C60.8897695,15.5742431 58.6316344,17.4305569 56.5462904,16.4347922 C55.6389817,16.001851 54.9702743,15.114949 54.5336183,13.754949 C53.6266215,15.9036549 52.530927,17.2639686 51.2686794,17.8054588 C50.9224736,17.9541647 50.4845701,18.0740078 49.9758659,18.0740078" id="Fill-6" fill="#FFFFFF"></path>
                    <g id="Group-10" transform="translate(87.019293, 4.212706)">
                        <mask id="mask-4" fill="white">
                            <use xlink:href="#path-3"></use>
                        </mask>
                        <g id="Clip-9"></g>
                        <path d="M5.44266688,2.144 C4.47672154,2.144 3.42874727,3.04941176 2.86140643,4.41976471 C2.5847537,5.08894118 2.39667974,5.76596078 2.29468939,6.42290196 L7.66555756,5.81898039 C7.47405273,3.39639216 6.57672476,2.34070588 5.73335498,2.17254902 C5.63760257,2.15341176 5.54029068,2.144 5.44266688,2.144 M4.92460579,13.5432157 C3.95148682,13.5432157 3.03544502,13.2683922 2.29843215,12.6996078 C0.00286945338,10.928 -0.56478328,7.18870588 0.917975563,3.60596078 C1.94286945,1.13003922 4.08903344,-0.31372549 6.14318778,0.0950588235 C9.52727138,0.770196078 9.80392412,5.36596078 9.80829068,6.75827451 C9.80985016,7.29882353 9.4065672,7.75372549 8.87259936,7.81396078 L2.27753505,8.55560784 C2.44315241,9.60470588 2.88355113,10.4818824 3.58001736,11.0192941 C4.76990482,11.9375686 6.77446752,11.2404706 8.02548682,10.0360784 L9.48111061,11.5658039 C8.13776977,12.8589804 6.45976334,13.5432157 4.92460579,13.5432157" id="Fill-8" fill="#FFFFFF" mask="url(#mask-4)"></path>
                    </g>
                    <g id="Group-13" transform="translate(30.565916, 4.212706)">
                        <mask id="mask-6" fill="white">
                            <use xlink:href="#path-5"></use>
                        </mask>
                        <g id="Clip-12"></g>
                        <path d="M9.08475177,2.23316078 C8.24356527,2.23316078 7.07114405,3.23143529 6.38996077,4.56006275 C4.7808836,7.69637647 5.80671318,10.6921412 6.78451061,11.3522196 C7.55208939,11.8698667 8.01962315,11.7675922 8.30469711,11.6452392 C9.59376785,11.0927686 10.6676296,8.55159216 11.3073305,6.25951373 C10.8878289,3.87990588 10.1193145,2.3846902 9.23695756,2.24476863 C9.18767781,2.23692549 9.13683859,2.23316078 9.08475177,2.23316078 M6.62606688,16.911749 C4.26500579,16.911749 3.2825299,17.6424157 2.90232733,18.0907294 C2.20336592,18.9152 2.19743987,20.2777098 2.88610868,21.7355922 C3.78530804,23.638651 5.8372791,25.5423373 8.03708939,25.4893176 C9.01270354,25.4670431 9.72133376,25.1881412 10.2677775,24.6115137 C11.4062019,23.4105725 11.8257035,20.9854745 11.9423531,17.7547294 C9.66144952,17.135749 7.93229196,16.911749 6.62606688,16.911749 M7.95069389,27.6079059 C4.77682894,27.6082196 2.12227267,25.0519843 0.984783923,22.6444549 C-0.0706758842,20.4107294 0.047533119,18.1948863 1.30042379,16.7166118 C3.46686109,14.1616314 8.06516013,14.5832784 11.9794688,15.5768471 C11.981964,14.0389647 11.9445363,12.3674353 11.9005588,10.5955137 C11.2006617,11.9319843 10.2899222,13.0955922 9.13122444,13.5928471 C8.34929839,13.9285333 7.10358135,14.1177098 5.61177749,13.110651 C3.79716013,11.8858667 2.36368103,7.79049412 4.51889003,3.58908235 C5.48670675,1.70233725 7.48066495,-0.177192157 9.56444952,0.152847059 C11.1588675,0.405709804 12.3150701,1.78390588 13.0134077,4.25731765 L13.879546,4.32884706 C13.897636,6.26547451 13.9437968,8.10578824 13.98871,9.88523922 C14.1861408,17.7286902 14.3286778,23.3958275 11.7917068,26.0725333 C10.8600701,27.055749 9.61279357,27.5718275 8.08449775,27.6063373 C8.04020836,27.6072784 7.99498328,27.6079059 7.95069389,27.6079059" id="Fill-11" fill="#FFFFFF" mask="url(#mask-6)"></path>
                    </g>
                    <path d="M71.865491,2.56580392 C71.865491,3.36988235 71.2173688,4.02211765 70.4176646,4.02211765 C69.6182723,4.02211765 68.9701502,3.36988235 68.9701502,2.56580392 C68.9701502,1.76172549 69.6182723,1.1094902 70.4176646,1.1094902 C71.2173688,1.1094902 71.865491,1.76172549 71.865491,2.56580392" id="z" fill="#FFFFFF"></path>
                    <path d="M76.6487138,18.1465412 C76.5501543,18.1465412 76.448164,18.1352471 76.3430547,18.1120314 C75.0886045,17.8350118 74.8091447,16.3237961 74.8802572,11.6078745 C73.3659968,15.5109333 72.3785305,17.2119529 71.0064952,17.3449725 C70.491865,17.3957961 70.0015627,17.2191686 69.6269743,16.8486588 C69.1341768,16.3608157 68.8587717,15.5557961 68.7361961,14.4336 C68.4823119,14.8241882 68.1984855,15.1874824 67.8809743,15.5071686 C64.3977074,19.0111686 60.3814084,17.4114824 58.7445723,16.0756392 L57.4352283,15.0074039 L58.9644598,14.2933647 C60.7528778,13.4576 63.7898199,9.83407059 63.9934887,7.4096 C63.5796013,7.39328627 62.8943633,7.41022745 62.1358296,7.42842353 C61.1617749,7.45195294 59.827791,7.48395294 58.0718103,7.48395294 L58.0718103,5.36630588 C59.8025273,5.36630588 61.122164,5.33461961 62.0853023,5.31140392 C64.307881,5.25775686 65.0564341,5.23924706 65.6390579,5.81179608 C66.1097106,6.27391373 66.1097106,6.89477647 66.1097106,7.15987451 C66.1097106,9.88269804 63.6575756,13.3383843 61.4116045,15.1862275 C62.6423505,15.6659137 64.5349421,15.8776784 66.3919775,14.0097569 C67.778672,12.6155608 68.3906141,9.74999216 68.685045,8.37305098 C68.769881,7.97493333 68.8263344,7.71171765 68.8899614,7.52442353 C69.2249389,6.53650196 70.0692444,6.68269804 70.1649968,6.70246275 C70.7731961,6.82920784 71.0588939,7.31265882 71.0149164,8.13901176 C71.0027524,8.36050196 70.9778006,8.6761098 70.9478585,9.05540392 C70.6543633,12.7206588 70.7572894,14.3294431 70.9519132,15.0011294 C71.7849904,13.9448157 73.0544116,10.5110902 73.632045,8.9481098 C73.9461254,8.09916863 74.2168521,7.36630588 74.4464084,6.82105098 C74.7152637,6.18387451 75.1207299,5.22073725 76.0673376,5.36630588 C76.3477331,5.4096 77.0073955,5.62701176 77.0641608,6.70873725 C77.0947267,7.28944314 77.0675916,8.26763922 77.0326592,9.50591373 C76.9992862,10.7206588 76.9353473,13.0218353 77.0098907,14.6425412 C77.4215949,13.6759529 77.8367299,12.666698 78.2387653,11.690698 C80.7801029,5.51563922 81.6602765,3.57556078 83.1704823,3.83093333 C84.4308585,4.04395294 84.5316013,5.74277647 84.5802572,6.5590902 C84.6591672,7.8870902 84.6987781,9.12379608 84.7340225,10.2152471 C84.7939068,12.0928941 84.875,14.6067765 85.2523955,15.2715608 C85.5833183,14.7150118 85.9457428,13.2273255 86.0689421,11.8287373 L86.1444212,10.9666196 L94.6311415,10.0091294 L94.8656881,12.1136 L88.0691383,12.8797176 C87.857672,14.4263843 87.3318135,16.7247373 86.0496045,17.3474824 C85.7074534,17.5131294 85.0128585,17.7110902 84.2013023,17.1711686 C82.8214695,16.2535216 82.7491093,14.0063059 82.6296527,10.2839529 C82.5993987,9.33712941 82.5654019,8.27956078 82.5048939,7.1561098 C81.8081158,8.55344314 80.9057974,10.7454431 80.1837556,12.5007373 C79.779537,13.4833255 79.3609711,14.4994824 78.9442765,15.4783059 C78.3663312,16.8367373 77.7129068,18.1465412 76.6487138,18.1465412" id="Fill-16" fill="#FFFFFF"></path>
                </g>
            </g>
        </g>
    </g>
</svg>