<?xml version="1.0" encoding="UTF-8"?>
<svg width="441px" height="143px" viewBox="0 0 441 143" version="1.1" xmlns="http://www.w3.org/2000/svg" xmlns:xlink="http://www.w3.org/1999/xlink">
    <!-- Generator: Sketch 41.2 (35397) - http://www.bohemiancoding.com/sketch -->
    <title>Magazine</title>
    <desc>Created with Sketch.</desc>
    <defs></defs>
    <g id="Page-1" stroke="none" stroke-width="1" fill="none" fill-rule="evenodd">
        <g id="Magazine" transform="translate(0.133481, -0.916187)" fill="#231F1F">
            <path d="M49.8833115,81.597906 C49.5345862,81.597906 49.2156301,81.563866 48.937784,81.517061 C43.1583,80.519977 42.5005417,73.66094 40.3245525,50.9308089 C39.2613656,39.8309706 37.1463325,17.7589437 34.037574,11.5126253 C33.3783982,12.3352558 32.4243651,13.7493292 31.1896507,16.1448859 C26.2734745,25.6888179 21.5259907,42.3598502 17.7126937,55.7559622 C16.0328584,61.65479 14.5826714,66.749426 13.3295285,70.502323 C11.8750888,74.858009 10.0775942,80.280279 5.08770369,79.410844 C-0.0581208836,78.510205 -0.171527486,72.978724 0.0694615438,61.555507 C0.26367035,52.3108425 1.06176931,37.5758284 2.51053865,16.507978 L12.0565394,17.1646641 C11.2385943,29.0601846 10.6205283,39.0792566 10.2051766,47.1991868 C13.8115065,34.6767651 18.0770124,20.7019752 22.6841556,11.7579961 C24.3682436,8.4901674 28.8265407,-0.1985125 35.7372555,1.1347162 C44.4355419,2.8111804 46.7164321,17.3164252 49.8492895,50.0174054 C50.2844874,54.567403 50.7721357,59.649274 51.290971,63.965247 C58.0386638,49.1224402 65.919005,31.1380357 66.0154006,30.9196131 C69.9761262,21.8522395 73.7525661,16.0030531 79.2981489,16.9476598 C86.2343802,18.1248724 87.277721,27.8730437 88.8101277,48.0445106 C89.2651717,54.0497131 89.8903255,62.270345 90.8301828,67.289809 C92.7084796,63.803558 95.7520293,56.9445214 100.293964,43.4888397 L109.359404,46.5524291 C99.5227988,75.693405 94.8121721,80.663228 89.0610398,79.941299 C81.8824019,79.039242 80.819215,69.186114 79.2683797,48.7706947 C78.8147533,42.7910221 78.1938521,34.611522 77.2596652,29.5948944 C76.5834784,30.8430234 75.7598629,32.5180693 74.7803134,34.7590282 C74.6626541,35.0285106 63.0583235,61.507284 55.9009493,76.846506 C54.0665975,80.778112 51.609927,81.597906 49.8833115,81.597906" id="Fill-1"></path>
            <path d="M123.260927,28.6796471 C119.962212,28.6796471 115.377751,33.0112221 112.165509,39.2391022 C104.8522,53.4181315 109.514629,66.960331 113.95875,69.944494 C117.448839,72.287573 119.572377,71.823779 120.869465,71.270631 C124.881224,69.560127 128.992213,63.210271 132.444027,53.3926016 C133.203851,51.2253957 133.860192,49.0950664 134.414466,47.1278449 C130.13762,30.7050201 125.12363,28.8697031 123.670608,28.7023403 C123.535938,28.6867387 123.39985,28.6796471 123.260927,28.6796471 M118.750179,81.289703 C115.837047,81.289703 112.406498,80.431615 108.62864,77.895643 C100.381145,72.358489 93.8659357,53.84363 103.662849,34.8479574 C107.919849,26.5932859 115.703795,18.1443035 124.767817,19.1924482 C131.852895,20.0108237 137.492038,26.2727437 141.584599,37.8363754 L146.207335,38.2391807 C146.207335,63.854192 150.200665,67.897846 150.730841,68.31909 C151.499171,68.239664 153.004644,67.153224 155.210402,65.088138 C155.934787,64.408758 156.506072,63.87263 157.139732,63.455642 L162.401798,71.452177 C162.44149,71.425229 162.489688,71.394026 162.539304,71.354313 C162.335172,71.517421 162.071501,71.775556 161.751128,72.074824 C159.244842,74.422157 153.373215,79.91818 146.969995,77.138256 C142.999346,75.416405 140.277588,71.1444 138.628939,63.659881 C134.675301,72.280481 129.980268,77.790687 124.626059,80.075614 C123.052542,80.747902 121.063674,81.289703 118.750179,81.289703" id="Fill-3"></path>
            <path d="M231.661336,28.6749666 C228.359787,28.6749666 223.771072,33.0079599 220.557412,39.2386767 C213.244104,53.4191243 217.906533,66.961324 222.350654,69.945487 C225.840743,72.287147 227.964281,71.823354 229.261369,71.271624 C233.273128,69.559702 237.384117,63.209845 240.83593,53.3935944 C241.600007,51.2178786 242.257766,49.0790393 242.812041,47.1075628 C238.536612,30.6989212 233.52404,28.8664409 232.071018,28.6976598 C231.936347,28.6820582 231.798842,28.6749666 231.661336,28.6749666 M227.142083,81.289278 C224.228951,81.289278 220.798401,80.431189 217.020544,77.895218 C208.773049,72.358064 202.259257,53.8432045 212.054752,34.8489502 C216.31317,26.5900238 224.104204,18.135368 233.168227,19.1877677 C240.256139,20.0061432 245.8967,26.2694816 249.989261,37.8373682 L254.599239,38.2387552 C254.599239,60.417157 259.579207,64.503361 261.105943,65.228127 C263.761075,66.490439 268.290251,64.537401 274.555966,59.415817 C275.220812,58.871179 275.66168,58.512342 276.092625,58.227258 L281.354692,66.223793 L281.412813,66.18408 C281.229945,66.317403 280.957769,66.544336 280.609043,66.82942 C276.746131,69.988037 266.484251,78.380286 257.004877,73.878512 C252.881129,71.921219 249.841832,67.911604 247.857217,61.76315 C243.734887,71.477282 238.754919,77.627154 233.017963,80.075189 C231.444446,80.747476 229.455578,81.289278 227.142083,81.289278" id="Fill-5"></path>
            <path d="M180.214006,28.7190766 C176.390786,28.7190766 171.062093,33.2321976 167.966093,39.2388185 C160.652785,53.4178478 165.315214,66.961466 169.759335,69.945629 C173.248006,72.285871 175.372962,71.823496 176.668632,71.270348 C182.527501,68.772671 187.408237,57.2842111 190.315699,46.9219036 C188.409051,36.1638825 184.916127,29.4041292 180.905786,28.7715547 C180.681808,28.7360965 180.450742,28.7190766 180.214006,28.7190766 M169.039203,95.079827 C158.308103,95.079827 153.842718,98.383114 152.114685,100.409905 C148.937883,104.137272 148.910949,110.297073 152.040971,116.888045 C156.127861,125.491625 165.454137,134.098042 175.452346,133.858344 C179.886545,133.757643 183.107292,132.496749 185.590897,129.889862 C190.765073,124.4605 192.671721,113.496822 193.201897,98.890875 C182.835116,96.092513 174.976039,95.079827 169.039203,95.079827 M175.059676,143.436316 C160.634356,143.437735 148.569311,131.881195 143.399388,120.996942 C138.602289,110.898444 139.139552,100.88079 144.833981,94.197627 C154.68051,82.64676 175.579929,84.552993 193.370589,89.04484 C193.38193,82.092194 193.21182,74.53534 193.011941,66.524621 C189.830886,72.5667 185.691545,77.82728 180.425226,80.075331 C176.871346,81.592942 171.209522,82.448194 164.429225,77.89536 C156.18173,72.358206 149.66652,53.8433463 159.462015,34.849092 C163.860774,26.3192649 172.923379,17.8220593 182.394248,19.3141408 C189.64093,20.4573135 194.895908,26.6880303 198.069876,37.8701316 L202.006502,38.1935105 C202.088722,46.9488519 202.298524,55.2687664 202.502656,63.313525 C203.399986,98.773154 204.047821,124.393839 192.517205,136.495017 C188.282886,140.940058 182.613973,143.273209 175.667819,143.429225 C175.466522,143.43348 175.260973,143.436316 175.059676,143.436316" id="Fill-10"></path>
            <path d="M326.631285,11.1778998 C326.631285,14.8130755 323.685549,17.7617803 320.050867,17.7617803 C316.417603,17.7617803 313.471867,14.8130755 313.471867,11.1778998 C313.471867,7.542724 316.417603,4.5940192 320.050867,4.5940192 C323.685549,4.5940192 326.631285,7.542724 326.631285,11.1778998" id="Fill-12"></path>
            <path d="M348.371047,81.617621 C347.923091,81.617621 347.46096,81.566561 346.981817,81.461605 C341.2803,80.209221 340.010146,73.377133 340.333355,52.0568198 C333.450991,69.702244 328.962925,77.391002 322.72698,77.993792 C320.387968,78.223561 318.160946,77.425042 316.45843,75.749996 C314.218649,73.544495 312.966924,69.905065 312.408396,64.831704 C311.255902,66.597523 309.965902,68.239947 308.521385,69.685224 C292.689823,85.526534 274.435613,78.294477 266.99614,72.255235 L261.046546,67.425827 L267.995536,64.197711 C276.123954,60.419284 289.928373,44.0375909 290.852637,33.0767488 C288.971504,33.0029958 285.858493,33.0795855 282.409515,33.1618486 C277.982405,33.2682232 271.920822,33.4128927 263.939832,33.4128927 L263.939832,23.8391758 C271.805998,23.8391758 277.802372,23.6959246 282.179867,23.5909683 C292.28156,23.3484342 295.683758,23.2647528 298.331802,25.8532022 C300.470934,27.9423999 300.470934,30.7492719 300.470934,31.9477594 C300.470934,44.2574318 289.3259,59.880319 279.119306,68.234274 C284.711669,70.402898 293.31356,71.36027 301.755264,62.915542 C308.056418,56.6124907 310.839133,43.6574789 312.175913,37.4324354 C312.562913,35.6325767 312.818078,34.4425991 313.107265,33.5958571 C314.631166,29.1295408 318.468562,29.7904819 318.902342,29.8798366 C321.666628,30.4528413 322.965133,32.6384854 322.765254,36.3743624 C322.711386,37.3757023 322.59798,38.8011224 322.460474,40.5172998 C321.127947,57.0876308 321.595749,64.360819 322.48032,67.39746 C326.266683,62.621948 332.034826,47.0983437 334.660189,40.0322314 C336.087695,36.1942347 337.318157,32.8810195 338.362915,30.4159647 C339.583453,27.5353397 341.426311,23.1810714 345.728674,23.8391758 C347.004498,24.0349051 350.002685,25.0178067 350.259267,29.9082031 C350.398191,32.5335291 350.274861,36.9558771 350.117509,42.5540194 C349.96441,48.0457871 349.673806,58.449226 350.014026,65.776311 C351.883817,61.406441 353.770619,56.8436783 355.597883,52.4312585 C367.148346,24.5143001 371.150181,15.7433572 378.014116,16.8978765 C383.742567,17.8609215 384.200446,25.5411699 384.420171,29.2316605 C384.77882,35.2354447 384.958852,40.8264954 385.119039,45.76086 C385.392633,54.2495556 385.759787,65.614621 387.475061,68.620059 C388.979117,66.103945 390.626347,59.378231 391.186293,53.0553231 L391.530765,49.1577565 L430.103186,44.8275999 L431.169208,54.3417469 L400.278667,57.8067233 C399.317546,64.799082 396.926084,75.189756 391.098402,78.005138 C389.543314,78.754016 386.387776,79.648981 382.697808,77.208038 C376.426423,73.059427 376.097544,62.899941 375.55461,46.0700556 C375.417105,41.7909587 375.262588,37.0097736 374.988995,31.9307395 C371.820698,38.2479743 367.721049,48.157835 364.437928,56.0933825 C362.600741,60.535587 360.699763,65.129553 358.805872,69.554738 C356.177674,75.6961 353.207839,81.617621 348.371047,81.617621" id="Fill-14"></path>
            <path d="M420.243049,28.315988 C415.852796,28.315988 411.089719,32.4092838 408.511136,38.6045424 C407.25374,41.6298369 406.398938,44.6905896 405.935388,47.6605694 L430.346159,44.9302871 C429.475764,33.977955 425.397379,29.2052799 421.564236,28.4450559 C421.129038,28.3585378 420.68817,28.315988 420.243049,28.315988 M417.888444,79.8509513 C413.465587,79.8509513 409.302147,78.6084956 405.952399,76.0370662 C395.518992,68.0277656 392.938992,51.1227091 399.678179,34.9253984 C404.336355,23.7319505 414.090741,17.2048031 423.426939,19.052885 C438.80771,22.1051278 440.065105,42.8822209 440.084951,49.1767625 C440.092039,51.6205423 438.259105,53.6771185 435.832204,53.9494376 L405.857421,57.302366 C406.610158,62.0452563 408.611784,66.0109025 411.777246,68.4404991 C417.185323,72.5919464 426.296126,69.4404207 431.98205,63.9954578 L438.597907,70.9112273 C432.49238,76.757577 424.865786,79.8509513 417.888444,79.8509513" id="Fill-7"></path>
        </g>
    </g>
</svg>