<svg id="SvgjsSvg1000" xmlns="http://www.w3.org/2000/svg" version="1.1" xmlns:xlink="http://www.w3.org/1999/xlink" xmlns:svgjs="http://svgjs.com/svgjs" width="109" height="88.99999506338827"><defs id="SvgjsDefs1001"></defs><path id="SvgjsPath1007" d="M985.60051 477.69239L1004.6923899999999 458.60051L1004.9999999999999 458.90812L1005.3076099999998 458.60051L1024.3994899999998 477.69239L1023.6923799999998 478.3995L1004.9999899999998 459.70711L986.3075999999998 478.3995ZM953 543L953 542L1058 542L1058 543ZM1005 529L1005 461L1006 461L1006 529Z " fill="#ffffff" fill-opacity="1" transform="matrix(1,0,0,1,-951,-456.00000246830587)"></path><path id="SvgjsPath1008" d="M985.60051 477.69239L1004.6923899999999 458.60051L1004.9999999999999 458.90812L1005.3076099999998 458.60051L1024.3994899999998 477.69239L1023.6923799999998 478.3995L1004.9999899999998 459.70711L986.3075999999998 478.3995ZM953 543L953 542L1058 542L1058 543ZM1005 529L1005 461L1006 461L1006 529Z " fill-opacity="0" fill="#ffffff" stroke-dasharray="0" stroke-linejoin="round" stroke-linecap="round" stroke-opacity="1" stroke="#ffffff" stroke-miterlimit="50" stroke-width="4" transform="matrix(1,0,0,1,-951,-456.00000246830587)"></path></svg>